<?xml version="1.0" standalone="no"?>
<!DOCTYPE svg PUBLIC "-//W3C//DTD SVG 20010904//EN"
 "http://www.w3.org/TR/2001/REC-SVG-20010904/DTD/svg10.dtd">
<svg version="1.0" xmlns="http://www.w3.org/2000/svg"
 width="256.000000pt" height="256.000000pt" viewBox="0 0 256.000000 256.000000"
 preserveAspectRatio="xMidYMid meet">
<metadata>
Created by potrace 1.14, written by Peter Selinger 2001-2017
</metadata>
<g transform="translate(0.000000,256.000000) scale(0.100000,-0.100000)"
fill="#000000" stroke="none">
<path d="M1258 2354 c-13 -21 -61 -104 -107 -184 -45 -80 -86 -152 -91 -160
-33 -53 -132 -223 -228 -392 -143 -250 -163 -306 -164 -457 0 -78 6 -114 33
-195 43 -125 14 -158 306 347 144 248 267 453 275 454 7 2 34 -36 63 -89 28
-51 111 -196 185 -322 75 -127 169 -288 209 -358 40 -71 76 -128 81 -128 5 0
23 44 40 98 37 115 43 234 16 345 -17 74 -31 104 -116 252 -31 55 -68 120 -82
145 -14 25 -88 153 -165 285 -77 132 -161 276 -186 319 l-45 79 -24 -39z"/>
<path d="M884 2166 c-427 -180 -689 -572 -679 -1019 3 -119 8 -152 40 -267 47
-166 106 -288 190 -390 81 -99 237 -220 374 -291 62 -32 64 -32 78 -13 8 10
98 164 201 342 102 177 190 321 195 319 5 -1 15 -14 23 -27 97 -169 375 -645
379 -648 8 -9 149 69 227 125 219 157 360 372 423 643 36 154 22 409 -30 565
-73 219 -229 422 -423 552 -73 49 -208 115 -280 138 l-23 7 17 -34 c9 -18 70
-124 136 -236 65 -111 118 -204 118 -207 0 -3 16 -30 37 -62 46 -72 106 -193
128 -258 91 -270 17 -584 -183 -778 l-40 -39 -35 59 c-19 32 -74 128 -122 213
-48 85 -98 171 -110 190 -27 42 -205 354 -224 393 -14 27 -31 36 -31 17 0 -5
-31 -62 -69 -127 -81 -140 -364 -630 -399 -691 -13 -23 -30 -42 -37 -42 -19 0
-104 97 -143 163 -120 200 -146 418 -77 633 30 92 67 164 235 449 152 260 200
343 200 350 0 9 -13 5 -96 -29z"/>
<path d="M2298 511 c-21 -31 -64 -89 -98 -128 -33 -40 -60 -74 -60 -77 0 -9
72 -126 79 -127 15 -3 341 -4 341 -1 0 4 -199 351 -214 374 -10 14 -17 8 -48
-41z"/>
<path d="M210 552 c0 -5 -47 -90 -104 -190 -58 -100 -102 -183 -98 -185 13 -7
328 -1 339 6 6 4 25 32 42 62 l31 55 -75 90 c-41 50 -85 108 -97 130 -21 37
-38 51 -38 32z"/>
</g>
</svg>
