<?xml version="1.0" standalone="no"?>
<!DOCTYPE svg PUBLIC "-//W3C//DTD SVG 20010904//EN"
 "http://www.w3.org/TR/2001/REC-SVG-20010904/DTD/svg10.dtd">
<svg version="1.0" xmlns="http://www.w3.org/2000/svg"
 width="1067.000000pt" height="1067.000000pt" viewBox="0 0 1067.000000 1067.000000"
 preserveAspectRatio="xMidYMid meet">

<g transform="translate(0.000000,1067.000000) scale(0.100000,-0.100000)"
fill="#000000" stroke="none">
<path d="M5525 10240 c-3 -5 -13 -10 -21 -10 -20 0 -44 -24 -44 -44 0 -9 -4
-16 -10 -16 -5 0 -10 -13 -10 -29 0 -17 -4 -33 -10 -36 -14 -9 -12 -81 2 -108
7 -12 30 -40 51 -63 33 -35 38 -47 35 -80 l-3 -39 -57 -3 -58 -3 0 -1174 0
-1175 -69 0 c-39 0 -73 -4 -76 -10 -4 -6 -63 -10 -145 -10 -82 0 -141 -4 -145
-10 -4 -6 -82 -10 -200 -10 -118 0 -196 -4 -200 -10 -12 -19 -131 -12 -170 10
-22 12 -54 20 -83 20 -43 0 -52 -4 -82 -37 -57 -62 -64 -80 -46 -117 26 -55
86 -96 139 -96 41 0 97 26 97 46 0 11 16 14 69 14 39 0 73 -4 76 -10 4 -6 72
-10 171 -10 103 0 164 -4 164 -10 0 -6 45 -10 115 -10 70 0 115 -4 115 -10 0
-6 52 -10 135 -10 l135 0 0 -39 c0 -22 5 -43 10 -46 6 -3 10 -28 10 -56 0 -27
-4 -49 -10 -49 -6 0 -10 -62 -10 -165 l0 -165 -45 0 c-25 0 -45 5 -45 10 0 6
-15 10 -34 10 -19 0 -38 -4 -41 -10 -9 -14 -388 -13 -402 1 -8 8 -13 8 -17 0
-10 -16 -360 -15 -385 1 -31 19 -51 -10 -51 -76 0 -30 4 -58 10 -61 6 -3 10
-46 10 -95 0 -49 5 -92 10 -95 6 -3 10 -46 10 -96 0 -53 4 -89 10 -89 6 0 10
-26 10 -59 0 -33 5 -63 10 -66 6 -3 10 -46 10 -95 0 -49 5 -92 10 -95 6 -3 10
-46 10 -96 0 -53 4 -89 10 -89 6 0 10 -30 10 -69 0 -39 5 -73 10 -76 6 -3 10
-40 10 -81 0 -55 4 -80 16 -91 8 -9 13 -22 10 -30 -3 -8 -6 -28 -6 -44 l0 -29
-339 0 c-216 0 -342 4 -346 10 -4 6 -78 10 -191 10 -116 0 -184 -4 -184 -10 0
-6 -30 -10 -69 -10 -39 0 -73 5 -76 10 -4 6 -53 10 -114 10 -93 0 -110 3 -125
19 -11 12 -14 21 -7 26 8 4 11 119 11 356 0 226 4 349 10 349 6 0 10 58 10
154 0 130 3 156 16 167 14 11 16 27 11 91 -4 59 -2 80 9 89 10 8 14 36 14 100
0 48 5 91 10 94 6 3 10 30 10 60 0 43 -4 57 -21 68 -11 8 -29 13 -40 10 -10
-3 -30 2 -44 11 -13 9 -31 16 -40 16 -52 0 -142 97 -115 124 5 5 10 20 10 32
0 13 5 26 10 29 6 3 10 17 10 31 0 28 60 94 85 94 8 0 15 5 15 10 0 6 9 10 19
10 11 0 23 5 26 10 11 18 37 10 65 -20 21 -22 37 -30 63 -30 20 0 37 6 40 13
3 9 7 9 19 -1 11 -9 18 -10 23 -2 10 17 51 11 70 -10 13 -15 31 -20 67 -20 26
0 48 -4 48 -10 0 -5 17 -10 38 -10 34 0 39 4 59 47 23 47 23 47 3 68 -28 30
-28 105 0 112 11 3 20 9 20 14 0 5 -9 14 -20 21 -11 7 -20 21 -20 30 0 15 -9
18 -44 18 -25 0 -48 -4 -51 -10 -3 -5 -15 -10 -26 -10 -10 0 -19 -4 -19 -10 0
-5 -9 -10 -20 -10 -11 0 -20 -4 -20 -10 0 -5 -20 -10 -45 -10 -25 0 -45 5 -45
10 0 15 -73 12 -107 -5 -16 -8 -38 -24 -48 -35 -21 -23 -57 -26 -75 -6 -6 8
-18 12 -26 9 -16 -6 -74 43 -74 62 0 7 -9 20 -20 30 -11 10 -20 31 -20 47 0
15 -4 28 -10 28 -5 0 -10 14 -10 30 0 23 -4 30 -20 30 -11 0 -20 7 -20 15 0 9
10 15 26 15 35 0 54 22 54 64 0 20 5 36 10 36 6 0 10 61 10 164 0 99 4 167 10
171 20 12 11 87 -12 113 l-23 24 33 29 c24 22 32 37 32 63 0 19 5 38 10 41 6
3 10 24 10 46 0 21 6 48 12 59 10 16 10 24 0 40 -6 11 -12 29 -12 40 0 16 -7
20 -30 20 -20 0 -30 5 -30 15 0 8 9 15 20 15 29 0 25 23 -7 37 -18 9 -30 10
-39 2 -7 -5 -41 -9 -75 -7 -58 3 -64 5 -69 28 -4 17 -8 21 -14 12 -4 -6 -18
-12 -30 -12 -13 0 -29 -7 -36 -15 -10 -11 -36 -15 -111 -15 -92 0 -99 -1 -99
-20 0 -11 -4 -20 -10 -20 -13 0 -13 -83 1 -97 8 -8 7 -17 -3 -33 -10 -18 -10
-24 0 -27 14 -6 16 -39 2 -48 -13 -8 -13 -72 0 -80 5 -3 10 -32 10 -63 0 -46
4 -60 20 -72 11 -8 20 -20 20 -26 0 -6 7 -17 15 -24 11 -10 15 -36 15 -111 0
-93 -1 -99 -20 -99 -24 0 -37 -27 -21 -43 6 -6 11 -37 11 -69 0 -61 9 -85 48
-129 15 -17 20 -29 13 -33 -6 -4 -11 -24 -11 -45 0 -43 -20 -89 -50 -116 -11
-10 -20 -24 -20 -32 0 -7 -6 -13 -14 -13 -7 0 -19 -7 -26 -15 -7 -8 -16 -13
-20 -10 -4 3 -13 -2 -20 -10 -7 -8 -20 -15 -29 -15 -20 0 -61 40 -61 58 0 9
-32 12 -110 12 -67 0 -110 -4 -110 -10 0 -16 -66 -12 -80 6 -11 13 -10 16 8
21 47 12 18 23 -58 23 -73 0 -80 -2 -80 -20 0 -11 -4 -20 -10 -20 -5 0 -10
-13 -10 -28 0 -15 -5 -33 -11 -39 -8 -8 -8 -13 0 -17 6 -4 11 -37 11 -77 0
-39 4 -69 10 -69 6 0 10 -9 10 -20 0 -13 7 -20 18 -20 10 0 24 9 32 20 15 21
50 28 50 10 0 -20 70 -9 125 20 59 31 85 37 85 20 0 -5 -4 -10 -10 -10 -5 0
-10 -4 -10 -10 0 -6 27 -10 60 -10 45 0 60 3 60 14 0 17 54 46 84 46 22 0 139
-113 164 -157 6 -13 12 -44 12 -71 0 -40 -5 -52 -27 -73 -37 -32 -68 -49 -92
-49 -10 0 -24 -7 -32 -16 -8 -10 -26 -14 -50 -13 -20 2 -44 -3 -53 -10 -17
-15 -22 -71 -6 -71 6 0 10 -30 10 -69 0 -39 5 -73 10 -76 6 -3 10 -42 10 -86
0 -46 4 -79 10 -79 6 0 10 -36 10 -89 0 -50 5 -93 10 -96 6 -4 10 -78 10 -189
0 -110 4 -186 10 -192 7 -7 9 -112 8 -295 l-3 -284 -132 -3 c-86 -2 -133 1
-133 8 0 15 -243 13 -258 -2 -10 -10 -17 -10 -32 0 -11 6 -28 12 -39 12 -10 0
-25 7 -32 16 -12 15 -38 16 -239 9 -201 -6 -227 -5 -239 9 -19 22 -163 23
-181 1 -16 -19 -34 -19 -50 0 -8 10 -31 15 -66 15 -29 0 -56 5 -59 10 -9 14
-168 13 -183 -2 -9 -9 -15 -9 -24 0 -7 7 -22 12 -34 12 -13 0 -26 5 -29 10 -3
6 -49 10 -101 10 -73 0 -96 -3 -100 -14 -6 -16 128 -156 149 -156 7 0 19 -9
27 -20 8 -11 22 -20 32 -20 10 0 18 -4 18 -10 0 -5 18 -10 39 -10 22 0 43 -4
46 -10 3 -5 46 -10 96 -10 53 0 89 -4 89 -10 0 -6 42 -10 105 -10 63 0 105 -4
105 -10 0 -6 62 -10 165 -10 103 0 165 -4 165 -10 0 -6 83 -10 230 -10 144 0
230 -4 230 -10 0 -6 84 -11 218 -12 l217 -3 3 -349 c1 -227 -1 -353 -8 -360
-6 -6 -10 -102 -10 -252 0 -151 -4 -245 -10 -249 -6 -4 -10 -73 -10 -175 0
-102 -4 -171 -10 -175 -6 -4 -10 -72 -10 -171 0 -103 -4 -164 -10 -164 -6 0
-10 -47 -10 -121 0 -117 -1 -122 -25 -141 -19 -15 -25 -29 -25 -59 0 -21 -4
-39 -10 -39 -5 0 -10 -9 -10 -20 0 -11 -4 -20 -10 -20 -5 0 -10 -7 -10 -16 0
-20 -24 -44 -44 -44 -9 0 -16 -4 -16 -10 0 -5 -9 -10 -20 -10 -11 0 -20 -4
-20 -10 0 -5 -17 -10 -38 -10 -21 0 -44 -6 -51 -13 -6 -6 -17 -12 -24 -12 -7
0 -13 -11 -15 -25 -2 -19 10 -38 53 -80 30 -30 55 -60 55 -67 0 -7 9 -13 20
-13 13 0 20 -7 20 -20 0 -13 7 -20 20 -20 11 0 20 -4 20 -10 0 -5 8 -10 18
-10 9 0 23 -9 30 -20 7 -11 20 -20 30 -20 9 0 23 -9 30 -20 13 -21 42 -28 42
-9 0 5 4 7 10 4 5 -3 10 -16 10 -28 0 -16 3 -18 12 -9 18 18 28 15 28 -10 0
-17 3 -19 12 -10 17 17 25 15 31 -8 3 -12 14 -20 26 -20 11 0 36 -9 56 -20 37
-21 109 -27 120 -10 8 13 142 13 150 0 3 -5 26 -10 50 -10 24 0 47 5 50 10 3
6 24 10 46 10 21 0 39 5 39 10 0 6 13 10 29 10 16 0 34 7 41 15 7 9 29 23 49
32 49 22 71 42 71 65 0 20 16 25 23 6 3 -8 21 3 49 29 24 24 48 43 54 43 13 0
84 73 84 86 0 14 53 64 68 64 7 0 12 11 12 24 0 33 -52 61 -67 37 -10 -15 -12
-14 -30 1 -11 10 -35 18 -56 18 -25 0 -37 5 -37 14 0 23 -27 68 -35 57 -10
-18 -25 -13 -25 8 0 11 -4 23 -10 26 -5 3 -10 20 -10 38 0 21 -10 41 -32 64
-25 26 -29 36 -20 45 15 15 17 194 2 203 -6 4 -10 59 -10 134 0 79 -4 131 -11
138 -7 7 -10 65 -10 165 2 129 -1 157 -14 168 -12 10 -15 42 -15 191 0 108 -4
180 -10 184 -6 4 -10 162 -10 440 0 306 -3 436 -11 441 -8 4 -7 9 2 14 10 7
10 12 1 23 -7 7 -9 17 -5 20 3 4 320 7 703 7 608 0 699 -2 710 -15 7 -8 23
-15 35 -15 35 0 55 -49 55 -131 0 -37 5 -71 10 -74 6 -3 10 -37 10 -75 0 -38
5 -72 10 -75 6 -3 10 -42 10 -86 0 -46 4 -79 10 -79 6 0 10 -33 10 -79 0 -44
5 -83 10 -86 6 -3 10 -46 10 -96 0 -53 4 -89 10 -89 6 0 10 -33 10 -79 0 -44
5 -83 10 -86 6 -3 10 -42 10 -85 0 -43 5 -82 10 -85 6 -3 10 -46 10 -96 0 -53
4 -89 10 -89 6 0 10 -30 10 -69 0 -39 5 -73 10 -76 6 -3 10 -49 10 -104 0 -62
4 -101 12 -109 7 -7 11 -33 9 -60 -2 -34 2 -52 13 -61 12 -10 16 -34 16 -102
0 -48 5 -91 10 -94 6 -3 10 -50 10 -106 0 -59 4 -99 10 -99 6 0 10 -22 10 -49
0 -28 5 -53 10 -56 6 -3 10 -50 10 -106 0 -59 4 -99 10 -99 6 0 10 -30 10 -69
0 -39 5 -73 10 -76 6 -3 10 -46 10 -95 0 -49 5 -92 10 -95 6 -3 10 -42 10 -86
0 -46 4 -79 10 -79 6 0 10 -36 10 -89 0 -50 5 -93 10 -96 6 -3 10 -37 10 -75
0 -46 4 -70 13 -73 9 -3 9 -7 -1 -19 -9 -11 -10 -18 -2 -23 5 -3 10 -35 10
-70 0 -35 5 -67 10 -70 6 -3 10 -37 10 -74 0 -39 5 -72 12 -79 7 -7 11 -29 9
-50 -1 -25 3 -43 13 -51 9 -8 16 -24 16 -37 0 -12 5 -26 10 -29 6 -3 10 -19
10 -36 0 -16 5 -29 10 -29 6 0 10 -13 10 -30 0 -16 5 -30 10 -30 6 0 10 -9 10
-19 0 -11 5 -23 10 -26 6 -3 10 -14 10 -23 0 -29 109 -237 140 -267 17 -16 30
-34 30 -39 1 -17 107 -126 122 -126 8 0 32 -18 53 -40 21 -22 48 -40 59 -40
22 0 196 166 196 186 0 6 9 19 20 29 11 10 20 23 20 30 0 7 9 20 20 30 11 10
20 23 20 30 0 6 14 24 30 40 30 29 80 117 80 142 0 7 5 13 10 13 6 0 10 9 10
20 0 11 5 20 10 20 6 0 10 14 10 30 0 17 5 30 10 30 6 0 10 9 10 19 0 11 4 23
10 26 5 3 10 17 10 30 0 13 4 27 10 30 5 3 10 21 10 40 0 19 4 37 10 40 6 3
10 24 10 46 0 21 5 39 10 39 6 0 10 33 10 78 0 47 5 83 12 90 7 7 11 34 9 67
-2 39 3 64 14 81 12 19 16 46 14 110 -1 53 2 89 10 97 6 6 11 28 11 49 0 21 5
38 10 38 6 0 10 33 10 79 0 44 4 83 10 86 6 4 10 72 10 171 0 103 4 164 10
164 6 0 10 22 10 49 0 28 5 53 10 56 6 3 10 46 10 96 0 53 4 89 10 89 6 0 10
26 10 58 0 32 5 63 12 70 10 10 10 17 0 32 -15 24 -16 57 -2 65 6 3 10 33 10
65 0 32 5 62 10 65 6 3 10 30 10 60 0 30 4 57 10 60 6 4 10 53 10 115 0 62 4
111 10 115 6 3 10 30 10 59 0 28 5 57 11 63 7 7 11 50 10 116 -2 83 1 106 14
117 11 9 15 33 15 101 0 48 5 91 10 94 6 3 10 46 10 96 0 53 4 89 10 89 6 0
10 22 10 49 0 28 5 53 10 56 6 4 10 53 10 116 0 66 4 109 10 109 6 0 10 30 10
69 0 39 5 73 10 76 8 5 7 12 -2 23 -10 12 -10 16 0 19 8 3 12 27 12 73 0 38 4
72 10 75 6 3 10 42 10 86 0 43 4 79 9 79 6 0 11 24 13 52 l3 53 418 3 c281 1
417 6 417 13 0 6 19 9 48 7 l47 -3 3 -53 c2 -29 12 -69 23 -88 11 -20 19 -54
19 -78 0 -27 6 -48 15 -56 9 -7 13 -20 10 -28 -3 -9 6 -27 22 -44 20 -21 36
-28 64 -28 21 0 40 -6 43 -12 5 -10 7 -10 12 0 3 6 12 12 21 12 19 0 43 24 43
44 0 9 6 16 13 16 19 0 45 30 49 58 1 12 8 23 13 22 6 0 11 -89 13 -242 1
-147 6 -246 13 -254 7 -8 7 -14 -1 -19 -13 -8 -13 -85 0 -85 7 0 10 -148 10
-424 0 -273 4 -427 10 -431 6 -3 10 -21 10 -40 0 -19 -4 -37 -10 -40 -5 -3
-10 -15 -10 -26 0 -10 5 -19 10 -19 6 0 10 -9 10 -20 0 -11 5 -20 10 -20 6 0
10 -13 10 -29 0 -17 5 -33 10 -36 6 -3 10 -17 10 -30 0 -13 5 -27 10 -30 6 -3
10 -19 10 -35 0 -16 9 -45 20 -65 11 -20 20 -47 20 -60 0 -14 5 -25 10 -25 6
0 10 -13 10 -30 0 -16 5 -30 10 -30 6 0 10 -11 10 -23 0 -26 25 -83 41 -92 5
-4 9 -17 9 -30 0 -13 5 -27 10 -30 6 -3 10 -19 10 -35 0 -16 9 -45 20 -65 11
-20 20 -47 20 -60 0 -14 5 -25 10 -25 6 0 10 -13 10 -30 0 -16 5 -30 10 -30 6
0 10 -18 10 -40 0 -33 3 -40 20 -40 16 0 20 7 20 30 0 17 5 30 10 30 6 0 10 9
10 20 0 11 5 20 10 20 6 0 10 14 10 30 0 17 5 30 10 30 6 0 10 13 10 29 0 17
5 33 10 36 6 3 10 17 10 30 0 13 5 27 10 30 6 3 10 17 10 30 0 13 5 27 10 30
5 3 10 17 10 30 0 13 4 27 10 30 5 3 10 24 10 45 0 21 4 41 9 45 14 8 41 65
41 86 0 10 5 21 10 24 6 3 10 19 10 35 0 16 9 45 20 65 11 20 20 50 20 68 0
21 7 38 20 47 15 11 20 26 20 62 0 26 5 50 10 53 6 4 10 126 10 335 0 253 3
330 13 334 10 5 10 7 0 12 -15 7 -17 44 -3 44 13 0 13 53 -1 67 -8 8 -8 13 0
17 8 5 11 144 11 457 0 391 2 452 15 466 13 13 52 15 254 14 202 -1 240 1 251
14 11 13 64 15 381 15 234 0 370 4 374 10 3 6 17 10 30 10 18 0 29 -9 41 -35
l16 -35 97 0 c58 0 101 4 108 11 6 6 22 17 35 23 19 9 24 21 26 64 2 28 7 52
13 52 12 0 12 177 -1 185 -5 3 -10 21 -10 40 0 51 -37 65 -167 65 -87 0 -103
-2 -103 -16 0 -33 -26 -44 -105 -44 -68 0 -77 -2 -82 -20 -6 -24 -23 -27 -23
-4 0 11 -5 14 -16 10 -9 -4 -23 -1 -30 5 -11 9 -18 8 -29 -1 -22 -18 -65 -18
-96 -1 -17 9 -34 11 -45 6 -32 -14 -63 -17 -229 -19 -88 -2 -168 -6 -178 -11
-11 -4 -23 -3 -30 4 -14 14 -80 14 -95 -1 -8 -8 -15 -8 -26 1 -11 10 -19 9
-35 -1 -16 -10 -23 -10 -33 0 -17 17 -83 15 -98 -3 -10 -12 -31 -15 -99 -13
l-86 3 -3 274 c-1 184 1 278 8 286 8 10 7 19 -2 35 -11 17 -11 22 1 30 12 7
12 11 2 24 -9 11 -10 16 -2 16 8 0 11 125 11 453 0 289 4 457 10 463 26 26
-34 84 -87 84 -13 0 -23 5 -23 10 0 6 -9 10 -20 10 -11 0 -20 5 -20 10 0 6
-13 10 -30 10 -16 0 -30 5 -30 10 0 6 -9 10 -19 10 -26 0 -34 15 -16 30 16 14
9 40 -12 40 -8 0 -21 7 -29 15 -14 13 -12 18 13 40 17 15 41 24 60 25 17 0 35
5 38 10 3 6 16 10 27 10 12 0 30 7 40 17 17 15 19 15 38 -2 19 -18 20 -17 20
3 0 22 47 52 82 52 25 0 68 44 68 69 0 13 -16 27 -52 45 -29 14 -57 26 -63 26
-18 0 -71 -29 -85 -45 -17 -21 -200 -22 -200 -2 0 16 31 47 47 47 16 0 56 48
48 59 -3 6 -26 20 -51 31 l-44 20 0 70 c0 40 4 70 10 70 6 0 10 77 10 210 0
133 -4 210 -10 210 -6 0 -10 30 -10 69 0 39 -4 73 -10 76 -5 3 -10 26 -10 50
0 24 -4 47 -10 50 -5 3 -10 24 -10 46 0 21 -4 39 -10 39 -5 0 -10 9 -10 19 0
11 5 23 10 26 6 3 10 21 10 40 0 19 -4 37 -10 40 -16 10 -12 65 5 65 8 0 30
15 50 32 28 26 35 40 35 69 0 21 -7 42 -16 50 -9 7 -20 24 -25 37 -7 17 -15
23 -29 19 -11 -3 -24 1 -31 9 -6 8 -29 14 -51 14 -41 0 -65 -19 -95 -78 -31
-59 1 -145 55 -150 28 -3 32 -7 32 -34 0 -21 -6 -31 -20 -35 -11 -3 -20 -9
-20 -14 0 -5 9 -24 20 -44 11 -20 20 -41 20 -48 0 -7 -9 -19 -20 -27 -15 -11
-20 -26 -20 -62 0 -26 -4 -50 -10 -53 -5 -3 -10 -21 -10 -40 0 -19 -4 -37 -10
-40 -5 -3 -10 -46 -10 -95 0 -49 -4 -92 -10 -95 -6 -4 -10 -75 -10 -180 0
-105 4 -176 10 -180 6 -3 10 -34 10 -69 0 -66 -17 -96 -53 -96 -9 0 -17 -4
-17 -10 0 -5 -10 -10 -21 -10 -18 0 -20 -2 -9 -15 7 -9 32 -25 55 -35 23 -10
48 -26 55 -35 11 -13 8 -15 -18 -15 -17 0 -34 -4 -37 -10 -3 -5 -21 -10 -39
-10 -17 0 -37 -5 -42 -10 -15 -15 -73 17 -84 46 -8 19 -17 24 -44 24 -19 0
-38 -4 -41 -10 -3 -5 -14 -10 -24 -10 -37 0 -81 -30 -81 -56 0 -16 6 -24 18
-24 10 0 24 -9 32 -20 8 -11 22 -20 32 -20 10 0 18 -9 20 -22 3 -20 9 -23 51
-24 27 -1 53 -6 60 -13 6 -6 21 -11 33 -11 13 0 26 -4 29 -10 9 -14 52 -12 58
3 8 22 50 -29 50 -62 0 -38 -67 -119 -100 -120 -12 -1 -38 -10 -58 -21 -20
-11 -42 -20 -49 -20 -8 0 -25 -6 -40 -13 l-26 -14 -5 -237 c-5 -178 -3 -241 6
-252 9 -11 9 -18 1 -26 -18 -18 -15 -123 3 -138 18 -15 20 -51 3 -68 -9 -9 -9
-15 0 -24 17 -17 15 -78 -5 -100 -15 -17 -15 -19 1 -36 15 -17 16 -50 14 -312
-2 -224 -6 -294 -15 -298 -8 -2 -13 6 -13 22 0 30 -15 59 -49 99 -28 31 -52
35 -72 11 -9 -11 -22 -14 -41 -10 -23 5 -30 1 -37 -17 -5 -12 -18 -31 -30 -41
-11 -11 -21 -24 -21 -31 0 -7 -9 -20 -20 -30 -11 -10 -20 -28 -20 -41 0 -13
-4 -26 -10 -29 -5 -3 -10 -37 -10 -76 l0 -69 -58 0 c-46 0 -63 -4 -77 -20 -13
-14 -22 -17 -29 -10 -14 14 -159 13 -174 -2 -10 -10 -17 -10 -32 0 -24 15 -76
16 -85 2 -3 -5 -19 -10 -36 -10 -16 0 -29 5 -29 10 0 18 -40 10 -52 -10 -14
-22 -76 -28 -94 -10 -5 5 -63 11 -129 12 -118 3 -120 3 -123 27 -2 13 1 28 7
34 6 6 11 52 11 109 0 59 4 98 10 98 6 0 10 33 10 78 0 45 5 83 11 89 8 8 11
44 10 96 -2 65 1 86 13 97 12 9 16 32 16 86 0 40 5 76 10 79 6 3 10 33 10 65
0 32 5 62 10 65 6 4 10 53 10 116 0 66 4 109 10 109 6 0 10 26 10 59 0 33 5
63 10 66 6 3 10 34 10 69 0 50 -4 67 -20 81 -11 10 -20 13 -20 7 0 -16 -801
-17 -817 -1 -8 8 -13 8 -17 0 -9 -14 -46 -14 -46 0 0 8 -5 7 -16 -1 -12 -11
-18 -10 -32 5 -13 13 -14 19 -4 22 17 7 17 404 0 421 -10 10 -10 15 2 22 13 9
13 11 1 19 -12 8 -12 12 2 25 13 13 42 16 166 16 89 0 152 4 156 10 4 6 67 10
155 10 88 0 151 4 155 10 4 6 65 10 151 10 118 0 144 -3 144 -14 0 -19 55 -46
95 -46 17 0 54 12 83 26 41 20 52 31 52 49 0 13 5 27 10 30 23 14 8 53 -38 98
-43 43 -52 47 -95 47 -28 0 -60 -8 -82 -20 -31 -17 -54 -20 -175 -20 -82 0
-141 4 -145 10 -4 6 -53 10 -115 10 -62 0 -111 4 -115 10 -4 6 -57 10 -125 10
-68 0 -121 4 -125 10 -3 6 -42 10 -86 10 l-79 0 0 1174 0 1175 -37 3 c-37 3
-38 5 -41 44 -2 30 2 45 18 59 11 10 20 23 20 30 0 7 9 20 20 30 16 15 20 31
20 86 0 50 -5 78 -20 104 -11 20 -20 42 -20 50 0 8 -9 15 -19 15 -11 0 -23 5
-26 10 -3 6 -30 10 -60 10 -30 0 -57 -4 -60 -10z"/>
<path d="M7940 7430 c0 -5 14 -10 30 -10 17 0 30 5 30 10 0 6 -13 10 -30 10
-16 0 -30 -4 -30 -10z"/>
<path d="M10130 5029 c0 -5 5 -7 10 -4 6 3 10 8 10 11 0 2 -4 4 -10 4 -5 0
-10 -5 -10 -11z"/>
</g>
</svg>
